<svg width="905" height="740" viewBox="0 0 905 740" fill="none" xmlns="http://www.w3.org/2000/svg">
<path d="M620.581 0H319.419C303.174 0 290 14.9402 290 33.3636V255.173V357.242V706.636C290 725.06 303.174 740 319.419 740H620.593C636.826 740 650 725.06 650 706.636V357.241V255.171V33.3636C650 14.9402 636.826 0 620.581 0Z" fill="#2C353F"/>
<path d="M630 53H310C304.477 53 300 57.4772 300 63V683C300 688.523 304.477 693 310 693H630C635.523 693 640 688.523 640 683V63C640 57.4772 635.523 53 630 53Z" fill="#56CCF2"/>
<path d="M514.104 35.31H425.828C420.955 35.31 417 31.355 417 26.482C417 21.609 420.955 17.654 425.828 17.654H514.104C518.977 17.654 522.932 21.609 522.932 26.482C522.932 31.355 518.977 35.31 514.104 35.31Z" fill="#C4CED3"/>
<path d="M584.897 35.31H576.069C571.196 35.31 567.241 31.355 567.241 26.482C567.241 21.609 571.196 17.654 576.069 17.654H584.897C589.77 17.654 593.725 21.609 593.725 26.482C593.725 31.355 589.77 35.31 584.897 35.31Z" fill="#C4CED3"/>
<path d="M695 295C701.566 295 708.068 296.94 714.134 300.709C720.2 304.478 725.712 310.003 730.355 316.967C734.998 323.931 738.681 332.199 741.194 341.299C743.707 350.398 745 360.151 745 370C745 379.849 743.707 389.602 741.194 398.701C738.681 407.801 734.998 416.069 730.355 423.033C725.712 429.997 720.2 435.522 714.134 439.291C708.068 443.06 701.566 445 695 445" stroke="#56CCF2" stroke-width="6" stroke-linecap="round"/>
<path d="M730 235C741.819 235 753.522 238.492 764.442 245.276C775.361 252.061 785.282 262.005 793.64 274.541C801.997 287.076 808.626 301.959 813.149 318.338C817.672 334.717 820 352.272 820 370C820 387.728 817.672 405.283 813.149 421.662C808.626 438.041 801.997 452.924 793.64 465.459C785.282 477.995 775.361 487.939 764.442 494.724C753.522 501.508 741.819 505 730 505" stroke="#56CCF2" stroke-width="8" stroke-linecap="round"/>
<path d="M760 160C778.385 160 796.59 165.432 813.576 175.985C830.561 186.539 845.995 202.007 858.995 221.508C871.995 241.008 882.307 264.158 889.343 289.636C896.379 315.115 900 342.422 900 370C900 397.578 896.379 424.885 889.343 450.364C882.307 475.842 871.995 498.992 858.995 518.492C845.995 537.993 830.561 553.461 813.576 564.015C796.59 574.568 778.385 580 760 580" stroke="#56CCF2" stroke-width="10" stroke-linecap="round"/>
<path d="M210 295C203.434 295 196.932 296.94 190.866 300.709C184.8 304.478 179.288 310.003 174.645 316.967C170.002 323.931 166.319 332.199 163.806 341.299C161.293 350.398 160 360.151 160 370C160 379.849 161.293 389.602 163.806 398.701C166.319 407.801 170.002 416.069 174.645 423.033C179.288 429.997 184.8 435.522 190.866 439.291C196.932 443.06 203.434 445 210 445" stroke="#56CCF2" stroke-width="6" stroke-linecap="round"/>
<path d="M175 235C163.181 235 151.478 238.492 140.558 245.276C129.639 252.061 119.718 262.005 111.36 274.541C103.003 287.076 96.3738 301.959 91.8508 318.338C87.3279 334.717 85 352.272 85 370C85 387.728 87.3279 405.283 91.8508 421.662C96.3738 438.041 103.003 452.924 111.36 465.459C119.718 477.995 129.639 487.939 140.558 494.724C151.478 501.508 163.181 505 175 505" stroke="#56CCF2" stroke-width="8" stroke-linecap="round"/>
<path d="M145 160C126.615 160 108.41 165.432 91.4243 175.985C74.4387 186.539 59.0053 202.007 46.005 221.508C33.0048 241.008 22.6925 264.158 15.6569 289.636C8.6212 315.115 4.99999 342.422 4.99999 370C4.99999 397.578 8.62119 424.885 15.6568 450.364C22.6925 475.842 33.0048 498.992 46.005 518.492C59.0052 537.993 74.4387 553.461 91.4243 564.015C108.41 574.568 126.615 580 145 580" stroke="#56CCF2" stroke-width="10" stroke-linecap="round"/>
</svg>
