<svg width="1046" height="740" viewBox="0 0 1046 740" fill="none" xmlns="http://www.w3.org/2000/svg">
<path d="M3 370H303" stroke="#EB5757" stroke-width="6" stroke-linecap="round"/>
<path d="M743 370H1043" stroke="#EB5757" stroke-width="6" stroke-linecap="round"/>
<path d="M48 390H322" stroke="#EB5757" stroke-width="6" stroke-linecap="round"/>
<path d="M724 390H998" stroke="#EB5757" stroke-width="6" stroke-linecap="round"/>
<path d="M673.581 0H372.419C356.174 0 343 14.9402 343 33.3636V255.173V357.242V706.636C343 725.06 356.174 740 372.419 740H673.593C689.826 740 703 725.06 703 706.636V357.241V255.171V33.3636C703 14.9402 689.826 0 673.581 0Z" fill="#2C353F"/>
<path d="M683 53H363C357.477 53 353 57.4772 353 63V683C353 688.523 357.477 693 363 693H683C688.523 693 693 688.523 693 683V63C693 57.4772 688.523 53 683 53Z" fill="#BDBDBD"/>
<path d="M567.104 35.31H478.828C473.955 35.31 470 31.355 470 26.482C470 21.609 473.955 17.654 478.828 17.654H567.104C571.977 17.654 575.932 21.609 575.932 26.482C575.932 31.355 571.977 35.31 567.104 35.31Z" fill="#C4CED3"/>
<path d="M637.897 35.31H629.069C624.196 35.31 620.241 31.355 620.241 26.482C620.241 21.609 624.196 17.654 629.069 17.654H637.897C642.77 17.654 646.725 21.609 646.725 26.482C646.725 31.355 642.77 35.31 637.897 35.31Z" fill="#C4CED3"/>
</svg>
